<svg height="512pt" viewBox="0 -26 512 512" width="512pt" xmlns="http://www.w3.org/2000/svg"><path d="m60 250c0-5.519531-4.480469-10-10-10s-10 4.480469-10 10 4.480469 10 10 10 10-4.480469 10-10zm0 0"/><path d="m452 0h-306c-39.4375 0-80 24.472656-80 70 0 5.523438 4.476562 10 10 10h70v245.855469l-37.070312 37.074219c-2.859376 2.859374-3.714844 7.160156-2.167969 10.894531 1.546875 3.738281 5.191406 6.175781 9.238281 6.175781h30v70c0 5.523438 4.476562 10 10 10h346c5.523438 0 10-4.476562 10-10v-380.003906c-.015625-63.175782-41.964844-69.996094-60-69.996094zm-183 380v60h-63v-60zm183-300v240h-43v-70c0-27.570312-22.429688-50-50-50h-80c-27.570312 0-50 22.429688-50 50v70h-23v-240zm40 0v240h-20v-240zm-243 270v-100c0-16.542969 13.457031-30 30-30h80c16.542969 0 30 13.457031 30 30v100c0 5.515625-4.484375 10-10 10h-10v-90c0-5.523438-4.476562-10-10-10s-10 4.476562-10 10v31.703125c-3.171875-1.117187-6.539062-1.703125-10-1.703125-7.671875 0-14.679688 2.898438-19.988281 7.65625-5.511719-4.949219-12.554688-7.65625-20.011719-7.65625-3.507812 0-6.871094.609375-10 1.71875v-31.71875c0-5.523438-4.476562-10-10-10s-10 4.476562-10 10v90h-10c-5.515625 0-10-4.484375-10-10zm40-20c0-5.515625 4.484375-10 10-10 5.519531 0 10 4.480469 10 10v110h-20zm40 0c0-5.515625 4.484375-10 10-10 5.519531 0 10 4.480469 10 10v110h-20zm40 50h83v60h-83zm38.28125-20c1.109375-3.128906 1.71875-6.492188 1.71875-10v-10h83v20zm44.71875-340c23.722656 0 36.992188 13.441406 39.542969 40h-79.089844c2.550781-26.582031 15.816406-40 39.546875-40zm-306-.011719h260.296875c-7.128906 8.914063-12.492187 21.714844-13.921875 40.011719h-305.4375c6.402344-32.515625 43.828125-40.011719 59.0625-40.011719zm40 60.011719v240h-20v-240zm-25.855469 260h68.855469v10c0 3.507812.609375 6.871094 1.71875 10h-90.578125zm5.855469 40h20v60h-20zm306 60v-60h20v60zm0 0"/><path d="m30 380c-5.523438 0-10 4.476562-10 10v50h-10c-5.523438 0-10 4.476562-10 10s4.476562 10 10 10h80c5.523438 0 10-4.476562 10-10s-4.476562-10-10-10h-10v-50c0-5.523438-4.476562-10-10-10h-10v-80h30c5.523438 0 10-4.476562 10-10v-160c0-5.523438-4.476562-10-10-10h-80c-5.523438 0-10 4.476562-10 10v160c0 5.523438 4.476562 10 10 10h30v80zm-10-240h60v140h-60zm20 300v-40h20v40zm0 0"/><path d="m50 220c5.523438 0 10-4.476562 10-10v-40c0-5.523438-4.476562-10-10-10s-10 4.476562-10 10v40c0 5.523438 4.476562 10 10 10zm0 0"/><path d="m359 160c0-22.054688-17.945312-40-40-40s-40 17.945312-40 40 17.945312 40 40 40 40-17.945312 40-40zm-40 20c-11.027344 0-20-8.972656-20-20s8.972656-20 20-20 20 8.972656 20 20-8.972656 20-20 20zm0 0"/></svg>