<svg xmlns="http://www.w3.org/2000/svg" xmlns:xlink="http://www.w3.org/1999/xlink" version="1.1" x="0px" y="0px" viewBox="0 0 100 125" enable-background="new 0 0 100 100" xml:space="preserve"><g><path d="M56.1591797,27.5136719c3.8242188,0,7.1601562-3.2392578,7.1601562-7.0625   c0-3.8291016-3.3359375-7.0654297-7.1601562-7.0654297c-3.8222656,0-7.0634766,3.2363281-7.0634766,7.0654297   C49.0957031,24.2744141,52.3369141,27.5136719,56.1591797,27.5136719z"/><path d="M67.1259766,43.1464844l-8.8027344-4.5283203L54.5009766,30.8125   c-0.3671875-1.1816406-1.0537109-2.2822266-2.0576172-3.15625c-2.8701172-2.4990234-7.2207031-2.1972656-9.71875,0.6699219   l-9.9140625,11.3740234c-1.84375,2.1201172-2.1640625,5.0449219-1.0517578,7.4394531   c0.0615234,0.2275391,0.1367188,0.453125,0.2265625,0.6757812l6.828125,16.7949219l-4.5332031,14.8466797   c-0.8925781,2.9267578,0.7548828,6.0234375,3.6816406,6.9160156c0.5380859,0.1650391,1.0839844,0.2412109,1.6191406,0.2412109   c2.3720703,0,4.5693359-1.5341797,5.2958984-3.921875l5.1123047-16.7285156   c0.3691406-1.2177734,0.3125-2.5253906-0.1689453-3.7070312l-5.8496094-14.3837891l5.9238281-6.8027344l1.2988281,2.6513672   c0.4140625,0.8427734,1.09375,1.5292969,1.9277344,1.9541016l8.5683594,4.3193359c0,1.6787109,0,32.4594727,0,33.5654297   c0,1.1376953,0.2109375,3.0537109,2.6943359,3.0537109c2.484375,0,2.6923828-1.9804688,2.6923828-3.0537109   c0-1.565918,0-32.0898438,0-33.5834961c0.4414062-0.3217773,0.8447266-0.7636719,1.1669922-1.371582   C69.7539062,45.7490234,68.2666016,43.9121094,67.1259766,43.1464844z"/></g><text x="0" y="115" fill="#000000" font-size="5px" font-weight="bold" font-family="'Helvetica Neue', Helvetica, Arial-Unicode, Arial, Sans-serif">Created by 1516</text><text x="0" y="120" fill="#000000" font-size="5px" font-weight="bold" font-family="'Helvetica Neue', Helvetica, Arial-Unicode, Arial, Sans-serif">from the Noun Project</text></svg>